<svg width="333" height="160" viewBox="0 0 333 160" fill="none" xmlns="http://www.w3.org/2000/svg">
<path d="M224.49 126.4C222.116 126.4 219.922 126.014 217.906 125.241C215.89 124.47 214.145 123.383 212.672 121.983C211.199 120.582 210.055 118.938 209.241 117.051C208.425 115.163 208.018 113.105 208.018 110.874C208.018 108.644 208.425 106.586 209.241 104.699C210.055 102.811 211.207 101.168 212.694 99.767C214.181 98.3658 215.925 97.279 217.927 96.5066C219.929 95.7359 222.102 95.3498 224.447 95.3498C226.821 95.3498 229.002 95.7359 230.989 96.5066C232.976 97.279 234.707 98.3659 236.18 99.767C237.652 101.168 238.804 102.805 239.633 104.678C240.462 106.55 240.877 108.616 240.877 110.874C240.877 113.105 240.462 115.171 239.633 117.072C238.804 118.973 237.652 120.617 236.18 122.004C234.707 123.39 232.976 124.47 230.989 125.242C229.002 126.014 226.835 126.4 224.49 126.4V126.4ZM224.447 120.481C225.791 120.481 227.028 120.253 228.158 119.795C229.287 119.337 230.282 118.68 231.14 117.822C231.997 116.965 232.662 115.95 233.134 114.777C233.606 113.605 233.842 112.304 233.842 110.874C233.842 109.445 233.606 108.143 233.134 106.972C232.662 105.8 232.004 104.784 231.161 103.927C230.317 103.069 229.323 102.411 228.179 101.954C227.035 101.496 225.791 101.268 224.447 101.268C223.104 101.268 221.866 101.496 220.737 101.954C219.606 102.411 218.614 103.069 217.755 103.927C216.898 104.784 216.232 105.8 215.761 106.972C215.289 108.143 215.053 109.445 215.053 110.874C215.053 112.275 215.289 113.569 215.761 114.756C216.232 115.942 216.89 116.965 217.734 117.822C218.577 118.68 219.572 119.337 220.715 119.795C221.859 120.253 223.104 120.481 224.447 120.481L224.447 120.481Z" fill="white" fill-opacity="0.9"/>
<path d="M158.669 126.4C156.296 126.4 154.101 126.014 152.085 125.241C150.069 124.47 148.324 123.383 146.852 121.983C145.378 120.582 144.234 118.938 143.42 117.051C142.604 115.163 142.197 113.105 142.197 110.874C142.197 108.644 142.604 106.586 143.42 104.699C144.234 102.811 145.385 101.168 146.872 99.767C148.361 98.3658 150.105 97.279 152.106 96.5066C154.108 95.7359 156.282 95.3498 158.627 95.3498C161 95.3498 163.181 95.7359 165.169 96.5066C167.155 97.279 168.886 98.3659 170.359 99.767C171.831 101.168 172.983 102.805 173.813 104.678C174.641 106.55 175.057 108.616 175.057 110.874C175.057 113.105 174.641 115.171 173.813 117.072C172.983 118.973 171.831 120.617 170.359 122.004C168.886 123.39 167.155 124.47 165.169 125.242C163.181 126.014 161.014 126.4 158.67 126.4L158.669 126.4ZM158.627 120.481C159.97 120.481 161.207 120.253 162.337 119.795C163.467 119.337 164.461 118.68 165.319 117.822C166.176 116.965 166.841 115.95 167.314 114.777C167.785 113.605 168.021 112.304 168.021 110.874C168.021 109.445 167.785 108.143 167.314 106.972C166.841 105.8 166.183 104.784 165.34 103.927C164.496 103.069 163.502 102.411 162.358 101.954C161.214 101.496 159.97 101.268 158.627 101.268C157.283 101.268 156.046 101.496 154.916 101.954C153.786 102.411 152.793 103.069 151.934 103.927C151.077 104.784 150.412 105.8 149.939 106.972C149.468 108.143 149.232 109.445 149.232 110.874C149.232 112.275 149.468 113.569 149.939 114.756C150.412 115.942 151.069 116.965 151.913 117.822C152.757 118.68 153.751 119.337 154.894 119.795C156.038 120.253 157.283 120.481 158.627 120.481L158.627 120.481Z" fill="white" fill-opacity="0.9"/>
<path d="M288.36 81.7853V33.7865H299.401V46.5217V65.0541L322.309 33.7865H332.734V81.7853H321.761V50.5866L298.853 81.7853H288.36Z" fill="white" fill-opacity="0.9"/>
<path d="M255.168 72.871H281.3V81.7853H244.127V33.7865H280.408V42.7008H255.168V53.1231H277.459V61.7628H255.168V72.871Z" fill="white" fill-opacity="0.9"/>
<path d="M154.13 73.834C161.26 73.834 165.834 73.3391 167.997 69.0063L149.097 33.7865H160.962L173.7 59.5867L186.887 33.7865H197.792L177.984 70.6026C175.576 75.1167 170.381 81.1455 164.927 81.6079C161.955 81.859 158.211 81.684 154.048 81.7804L154.129 73.8339L154.13 73.834Z" fill="white" fill-opacity="0.9"/>
<path d="M90.425 81.7853V33.7865H99.615L117.598 63.5915L135.279 33.7865H144.47L144.538 81.7853H134.114L134.051 53.0786L117.598 80.5398L100.85 53.5807V81.7853H90.425Z" fill="white" fill-opacity="0.9"/>
<path d="M305.245 125.886V95.8649H312.152V115.422L326.479 95.8649H333V125.886H326.136V106.373L311.809 125.886H305.245Z" fill="white" fill-opacity="0.9"/>
<path d="M270.854 125.886V95.8649H277.76V115.422L292.088 95.8649H298.609V125.886H291.745V106.373L277.418 125.886H270.854Z" fill="white" fill-opacity="0.9"/>
<path d="M245.414 125.886V95.8649H266.606L266.562 101.526H250.691L252.278 99.939L252.321 125.886H245.414Z" fill="white" fill-opacity="0.9"/>
<path d="M122.748 120.311H139.092V125.886H115.841V95.8649H138.534V101.441H122.748V107.96H136.689V113.363H122.748V120.311Z" fill="white" fill-opacity="0.9"/>
<path d="M90.4055 125.886V95.8649H111.597L111.553 101.526H97.2693L97.3123 125.886H90.4055Z" fill="white" fill-opacity="0.9"/>
<path d="M196.471 76.9925L199.791 69.3036C205.53 73.8899 220.454 75.2829 226.466 71.2577C229.363 69.3174 229.709 64.7407 226.902 62.7193C226.251 62.2503 225.402 61.8924 224.359 61.6494C223.279 61.3984 221.994 61.2712 220.51 61.2712H210.601V53.1036H219.466C220.891 53.1036 222.128 52.9781 223.175 52.7279C228.265 51.5138 230.104 46.2853 226.66 43.5796C224.443 41.8367 219.998 41.7234 216.773 41.7047C211.129 41.6796 205.505 41.7241 199.862 41.8294L204.276 33.8044C208.538 33.7768 212.799 33.7858 217.06 33.772C221.944 33.7567 227.641 33.857 231.682 36.5676C238.81 41.3476 239.989 51.7406 231.539 56.5749L231.388 56.6598L231.999 56.9319C233.363 57.5815 234.545 58.4342 235.537 59.4855C236.534 60.54 237.284 61.7645 237.784 63.1526C239.171 67.0052 238.638 71.3623 236.332 74.7671C235.595 75.8522 234.677 76.8136 233.578 77.6462C232.492 78.4689 231.222 79.1728 229.774 79.7542C220.871 83.325 204.025 83.1403 196.471 76.9925H196.471Z" fill="white" fill-opacity="0.9"/>
<path fill-rule="evenodd" clip-rule="evenodd" d="M314.829 30.5944H306.623V41.7964L314.829 30.5944Z" fill="white" fill-opacity="0.9"/>
<path fill-rule="evenodd" clip-rule="evenodd" d="M199.25 126.074H207.267L195.261 96.0522H194.603H187.243H186.586L174.579 126.074H182.597L190.923 105.255L199.25 126.074Z" fill="white" fill-opacity="0.9"/>
<path fill-rule="evenodd" clip-rule="evenodd" d="M33.4629 0.0468292L0.788273 32.9999H17.6662L33.4629 0.0468292Z" fill="white" fill-opacity="0.9"/>
<path fill-rule="evenodd" clip-rule="evenodd" d="M36.803 0L69.5214 32.9972H52.6432L36.803 0Z" fill="white" fill-opacity="0.9"/>
<path fill-rule="evenodd" clip-rule="evenodd" d="M50.8818 32.9974L35.1427 0.210728L19.4259 32.9974H50.8818Z" fill="white" fill-opacity="0.9"/>
<path fill-rule="evenodd" clip-rule="evenodd" d="M18.165 96.0556L0 82.1791L0.00803107 76.132L18.165 89.9985L52.1438 75.0264L70.3089 85.9816V92.0388L52.1438 81.0836L18.165 96.0556Z" fill="white" fill-opacity="0.9"/>
<path fill-rule="evenodd" clip-rule="evenodd" d="M18.165 83.9491L0 70.1857V67.6745L9.26904 54.3128L18.165 61.0506L28.9212 54.4429L43.0573 61.3523L52.1438 56.8243C58.1991 60.4762 64.2394 64.1383 70.3088 67.7578V79.9324L52.1438 68.9774L18.165 83.9492V83.9491Z" fill="white" fill-opacity="0.9"/>
<path fill-rule="evenodd" clip-rule="evenodd" d="M17.3687 54.5398L9.26904 48.4051L0 61.7667V34.5903H17.3687V54.5398Z" fill="white" fill-opacity="0.9"/>
<path fill-rule="evenodd" clip-rule="evenodd" d="M51.3477 51.3132L43.0574 55.4445L28.9215 48.5352L18.9615 54.6539V34.5903H51.3477V51.3132Z" fill="white" fill-opacity="0.9"/>
<path fill-rule="evenodd" clip-rule="evenodd" d="M70.308 34.5903V61.8501C64.5048 58.3894 58.728 54.8895 52.9392 51.3968V34.5903H70.308Z" fill="white" fill-opacity="0.9"/>
<path fill-rule="evenodd" clip-rule="evenodd" d="M18.165 107.872L0 93.9954V91.3632L0.0026466 87.9365L18.165 101.815L52.1438 86.8427L70.3089 97.798V103.855L52.1438 92.9L18.165 107.872Z" fill="white" fill-opacity="0.9"/>
<path fill-rule="evenodd" clip-rule="evenodd" d="M0 125.242V112.161L17.1228 125.242H0Z" fill="white" fill-opacity="0.9"/>
<path fill-rule="evenodd" clip-rule="evenodd" d="M18.165 119.985L0 106.108V100.051L18.165 113.928L52.1438 98.9556L70.3089 109.911V115.968L52.1438 105.013L18.165 119.985Z" fill="white" fill-opacity="0.9"/>
<path fill-rule="evenodd" clip-rule="evenodd" d="M19.9722 125.245L51.3479 111.42V125.245H19.9722Z" fill="white" fill-opacity="0.9"/>
<path fill-rule="evenodd" clip-rule="evenodd" d="M70.308 122.027V125.248H52.9392V111.552L70.308 122.027Z" fill="white" fill-opacity="0.9"/>
<path fill-rule="evenodd" clip-rule="evenodd" d="M33.4738 159.798L0.788273 126.834H17.6662L33.4738 159.798Z" fill="white" fill-opacity="0.9"/>
<path fill-rule="evenodd" clip-rule="evenodd" d="M36.7952 159.836L69.5183 126.834H52.6401L36.7952 159.836Z" fill="white" fill-opacity="0.9"/>
<path fill-rule="evenodd" clip-rule="evenodd" d="M19.4259 126.834L35.1441 159.612L50.8816 126.834H19.4259Z" fill="white" fill-opacity="0.9"/>
</svg>
